# xmcd
#
# Track frame offsets:
#	150
#	13548
#	24014
#	35782
#	47547
#	61039
#	72804
#	81988
#	93488
#	102975
#	118289
#	130527
#	144866
#	155614
#	168330
#	179740
#	193894
#	205380
#	215884
#	227443
#	240827
#	255594
#	267766
#	280618
#	294239
#	303222
#	316308
#
# Disc length: 4360 seconds
#
# Revision: 3
# Processed by: cddbd v1.5.1PL0 Copyright (c) Steve Scherf et al.
# Submitted via: dBpowerAMP V4.0
#
DISCID=7311061b
DTITLE=Merle Haggard - Untamed Hawk Disc 3
DYEAR=1995
DGENRE=Country
TTITLE0=Mary's Mine
TTITLE1=If You Want to Be My Woman 
TTITLE2=Someone Told My Story
TTITLE3=Piedras Negras (Go Home) 
TTITLE4=Whatever Happened To Me
TTITLE5=Loneliness Is Eating me Alive
TTITLE6=Skid Row 
TTITLE7=Drink Up And Be Somebody 
TTITLE8=Gone Crazy 
TTITLE9=I Threw Away the Rose 
TTITLE10=Some Of Us Never Learn 
TTITLE11=Branded Man 
TTITLE12=You Don't Have Very Far to Go 
TTITLE13=Wine Take Me Away 
TTITLE14=If You See My Baby 
TTITLE15=Somewhere Between 
TTITLE16=Don't Get Married 
TTITLE17=My Hands Are Tied 
TTITLE18=I Made the Prison Band 
TTITLE19=Look Over Me 
TTITLE20=Long Black Limousine 
TTITLE21=I'll Leave the Bottle on the Bar 
TTITLE22=Sing Me Back Home 
TTITLE23=The Son of Hickory Holler's Tramp 
TTITLE24=Seeing Eye Dog 
TTITLE25=Will You Visit Me on Sundays 
TTITLE26=Home Is Where a Kid Grows Up 
EXTD=Submitted faithfully by +Sound Man+\nPlease visit my Merle Haggard Discography site at:\nhttp://www.angelfire.com/stars4/anxietyfriend/merlehaggard.htm
EXTT0=
EXTT1=
EXTT2=
EXTT3=
EXTT4=
EXTT5=
EXTT6=
EXTT7=
EXTT8=
EXTT9=
EXTT10=
EXTT11=
EXTT12=
EXTT13=
EXTT14=
EXTT15=
EXTT16=
EXTT17=
EXTT18=
EXTT19=
EXTT20=
EXTT21=
EXTT22=
EXTT23=
EXTT24=
EXTT25=
EXTT26=
PLAYORDER=
